<svg width="914" height="400" fill="none" xmlns="http://www.w3.org/2000/svg"><style>#CL0 {stroke: #222;}#CL1 {fill: #222;}#CL2 {fill: #C74634;}@media (prefers-color-scheme: dark) {#CL0 {stroke: #CCC;}#CL1 {fill: #CCC;}#CL2 {fill: #C74634;}}</style><path id="CL0" stroke-width="1.5" d="M367.299 201.253h178"/><path d="M433.781 230.003h-8.757v-14.704h3.312v12.018h5.445v2.686Zm6.04 0h-3.312v-14.704h3.312v14.704Zm17.318 0h-3.342l-6.06-9.238c-.356-.54-.602-.947-.739-1.221h-.041c.055.52.082 1.313.082 2.379v8.08h-3.127v-14.704h3.568l5.835 8.952c.266.403.512.803.738 1.2h.041c-.055-.342-.082-1.015-.082-2.02v-8.132h3.127v14.704Zm16.089-6.367c0 4.416-2.058 6.624-6.173 6.624-3.992 0-5.988-2.157-5.988-6.47v-8.491h3.322v8.532c0 2.378.93 3.568 2.789 3.568 1.825 0 2.738-1.149 2.738-3.445v-8.655h3.312v8.337Zm15.955 6.367h-3.927l-2.533-4.788c-.096-.178-.195-.506-.297-.985h-.041c-.048.226-.161.568-.339 1.026l-2.543 4.747h-3.947l4.686-7.352-4.287-7.352h4.03l2.102 4.409c.164.349.311.763.441 1.241h.041c.082-.287.236-.714.462-1.282l2.337-4.368h3.692l-4.409 7.291 4.532 7.413Z" id="CL1"/><path d="M444.47 181.62h11.81l-6.238-10.4-11.469 18.784h-5.215l13.948-22.536c.304-.45.708-.818 1.178-1.073a3.239 3.239 0 0 1 3.054-.023c.473.248.882.61 1.193 1.056l13.986 22.576h-5.215l-2.456-4.2h-11.949l-2.604-4.184m54.189 4.184v-19.576h-4.433v21.504a2.251 2.251 0 0 0 .659 1.6 2.2 2.2 0 0 0 1.612.696h20.147l2.627-4.2h-20.636m-73.258-3.52a7.671 7.671 0 0 0 5.507-2.355 8.177 8.177 0 0 0 2.281-5.685 8.177 8.177 0 0 0-2.281-5.686 7.67 7.67 0 0 0-5.507-2.354h-19.372v23.776h4.424v-19.568h14.677c.988 0 1.936.405 2.635 1.127a3.91 3.91 0 0 1 1.092 2.721c0 1.02-.393 1.999-1.092 2.721a3.671 3.671 0 0 1-2.635 1.127h-12.484l13.22 11.872h6.424l-8.88-7.696h1.991Zm-46.586 7.696h13.382c3.001-.081 5.853-1.368 7.948-3.588 2.096-2.22 3.268-5.197 3.268-8.296 0-3.1-1.172-6.077-3.268-8.297-2.095-2.22-4.947-3.507-7.948-3.587h-13.382a11.177 11.177 0 0 0-4.498.814 11.498 11.498 0 0 0-3.837 2.555 11.928 11.928 0 0 0-2.574 3.894 12.229 12.229 0 0 0-.905 4.621c0 1.587.308 3.158.905 4.62a11.928 11.928 0 0 0 2.574 3.894 11.483 11.483 0 0 0 3.837 2.555c1.432.579 2.961.856 4.498.815Zm13.08-4.184h-12.786a7.35 7.35 0 0 1-5.115-2.339 7.828 7.828 0 0 1-2.099-5.353 7.83 7.83 0 0 1 2.099-5.354 7.349 7.349 0 0 1 5.115-2.338h12.786a7.24 7.24 0 0 1 2.925.512 7.438 7.438 0 0 1 2.501 1.651 7.714 7.714 0 0 1 1.678 2.526 7.91 7.91 0 0 1 0 6.005 7.714 7.714 0 0 1-1.678 2.526 7.438 7.438 0 0 1-2.501 1.651 7.258 7.258 0 0 1-2.925.513Zm84.068 4.184h13.661l2.588-4.184h-15.947a7.26 7.26 0 0 1-2.926-.513 7.434 7.434 0 0 1-2.5-1.651 7.698 7.698 0 0 1-1.678-2.526 7.909 7.909 0 0 1 0-6.005c.39-.95.96-1.809 1.678-2.526a7.434 7.434 0 0 1 2.5-1.651 7.242 7.242 0 0 1 2.926-.512h12.979l2.62-4.2h-15.901a11.177 11.177 0 0 0-4.498.814 11.498 11.498 0 0 0-3.837 2.555 11.91 11.91 0 0 0-2.573 3.894 12.21 12.21 0 0 0-.906 4.621c0 1.587.308 3.158.906 4.62a11.91 11.91 0 0 0 2.573 3.894 11.483 11.483 0 0 0 3.837 2.555c1.432.579 2.961.856 4.498.815Zm54.141-4.184a7.308 7.308 0 0 1-4.498-1.557 7.71 7.71 0 0 1-2.677-4.043h18.923l2.603-4.192h-21.526a7.7 7.7 0 0 1 2.676-4.045 7.297 7.297 0 0 1 4.499-1.555h12.988l2.596-4.2h-15.886c-3.001.08-5.853 1.367-7.948 3.587-2.095 2.22-3.268 5.197-3.268 8.297 0 3.099 1.173 6.076 3.268 8.296 2.095 2.22 4.947 3.507 7.948 3.588h13.662l2.595-4.184h-15.962" id="CL2"/></svg>